PathFileType	4	(X/Y/Z)	C:\Users\Basilio\Documents\Thesis Gigler\squatting_fais\c3dfiles\044\SLS_front_pre1\markers_experimental.trc
DataRate	CameraRate	NumFrames	NumMarkers	Units	OrigDataRate	OrigDataStartFrame	OrigNumFrames
200.000000	200.000000	4	60	mm	200.000000	785	1570
Frame#	Time	FHD			LBHD			RBHD			C7			T10			CLAV			LSHO			LUUPA			LMUPA			LDUPA			LLEP			LMEP			LUL			LRFIN			RSHO			RUPA1			RMUPA			RDUPA			RLEP			RMEP			RUL			RUFIN			LASI			RASI			USACR			LSACR			LTHI1			LTHI2			LTHI3			LTHI4			LLFC			LMFC			LTIB1			LTIB2			LTIB3			LTIB4			LLMAL			LMMAL			LHEE			LMT1			LMT2			LMT5			RTHI			RTHI2			RTHI3			RTHI4			RLFC			RMFC			RTIB1			RTIB2			RTIB3			RTIB4			RLMAL			RHEE			RMT1			RMT2			RMT5			RMMAL			RSACR			LRAD			
		X1	Y1	Z1	X2	Y2	Z2	X3	Y3	Z3	X4	Y4	Z4	X5	Y5	Z5	X6	Y6	Z6	X7	Y7	Z7	X8	Y8	Z8	X9	Y9	Z9	X10	Y10	Z10	X11	Y11	Z11	X12	Y12	Z12	X13	Y13	Z13	X14	Y14	Z14	X15	Y15	Z15	X16	Y16	Z16	X17	Y17	Z17	X18	Y18	Z18	X19	Y19	Z19	X20	Y20	Z20	X21	Y21	Z21	X22	Y22	Z22	X23	Y23	Z23	X24	Y24	Z24	X25	Y25	Z25	X26	Y26	Z26	X27	Y27	Z27	X28	Y28	Z28	X29	Y29	Z29	X30	Y30	Z30	X31	Y31	Z31	X32	Y32	Z32	X33	Y33	Z33	X34	Y34	Z34	X35	Y35	Z35	X36	Y36	Z36	X37	Y37	Z37	X38	Y38	Z38	X39	Y39	Z39	X40	Y40	Z40	X41	Y41	Z41	X42	Y42	Z42	X43	Y43	Z43	X44	Y44	Z44	X45	Y45	Z45	X46	Y46	Z46	X47	Y47	Z47	X48	Y48	Z48	X49	Y49	Z49	X50	Y50	Z50	X51	Y51	Z51	X52	Y52	Z52	X53	Y53	Z53	X54	Y54	Z54	X55	Y55	Z55	X56	Y56	Z56	X57	Y57	Z57	X58	Y58	Z58	X59	Y59	Z59	X60	Y60	Z60	

786	3.925	-135.8443298339844	1502.982055664063	-1074.910522460938	-268.4950561523438	1480.201904296875	-1156.780883789063	-319.6446838378907	1472.799194335938	-998.360290527344	-364.1849060058594	1331.374633789063	-1076.40673828125	-507.3637084960939	1075.249389648438	-1025.279174804688	-250.8716888427735	1241.996215820313	-1069.311767578125	-272.5640258789063	1310.17919921875	-1214.9443359375	-120.0241775512696	1253.372192382813	-1311.56494140625	-92.25673675537111	1260.887084960938	-1270.116577148438	-54.12001419067384	1236.062622070313	-1311.333374023438	5.023809432983399	1226.207885742188	-1301.069213867188	-17.86286735534668	1151.3125	-1281.490478515625	246.8000030517579	1208.43310546875	-1163.458618164063	258.9062500000001	1230.747802734375	-1063.27978515625	-276.3596496582032	1326.572143554688	-922.907653808594	-139.6507110595703	1285.675537109375	-809.551452636719	-106.0200271606446	1290.328125	-847.2462158203127	-71.4696731567383	1271.390380859375	-802.3619384765627	-10.36237144470215	1263.063720703125	-809.0003051757815	-26.2282829284668	1182.721069335938	-815.5888671875002	244.0781555175782	1228.8447265625	-926.058288574219	251.4721221923829	1210.183227539063	-1039.992553710938	-407.4868469238282	842.5324707031252	-1108.665771484375	-400.9224243164064	842.753356933594	-892.2617797851565	-562.8161621093751	911.8436279296877	-993.3536376953127	-577.8627319335939	880.2149047851565	-1017.577819824219	-376.9680480957032	649.1666259765626	-1185.745483398438	-294.6632690429688	625.8269042968751	-1191.513916015625	-265.2786865234376	661.8633422851564	-1185.245849609375	-271.2136840820313	570.6051025390626	-1179.125122070313	-156.1777954101563	476.5254821777345	-1156.745727539063	-149.0047607421875	487.4487609863282	-1039.176513671875	-179.2415161132813	322.0136108398438	-1051.843994140625	-222.4859008789063	276.5906372070313	-1113.517333984375	-192.7816467285157	268.5458679199219	-1074.96630859375	-240.9937133789063	213.1553039550782	-1032.605712890625	-337.2019958496094	121.504638671875	-1066.338256835938	-313.8354492187501	141.1116485595703	-983.1416625976565	-407.3277893066407	110.6932678222657	-1010.703979492188	-202.2163848876954	63.47584533691408	-986.947937011719	-200.4589233398438	61.57585525512697	-1033.736694335938	-238.4767303466797	47.31194305419923	-1079.937255859375	-304.2959289550782	663.0534057617189	-802.1875610351565	-237.0569763183594	677.9378051757814	-803.8494873046877	-224.7718505859376	707.9642333984376	-815.386657714844	-177.7615814208985	618.4124755859376	-818.9212036132815	-93.34858703613283	561.5808105468751	-822.9387817382815	-95.91942596435548	545.9691772460939	-940.8928222656252	7.02464532852173	471.5926513671876	-845.303649902344	-24.4082145690918	380.4232788085938	-791.2031860351565	14.91230010986328	390.5332031250001	-811.7484130859377	45.06514739990235	347.5396728515626	-834.6058349609377	54.10056304931642	180.926498413086	-805.1469726562502	29.5051383972168	109.1482086181641	-842.5630493164065	205.364242553711	220.3521270751954	-881.4079589843752	211.5999603271485	228.5974731445313	-844.9396972656252	195.2572479248047	197.0758666992188	-788.647399902344	66.0597610473633	190.8279418945313	-890.3874511718752	-573.3370971679689	884.1093750000002	-963.6119384765627	nan	nan	nan	
787	3.93	-135.7859497070313	1502.60205078125	-1074.892333984375	-268.2861328125001	1479.837158203125	-1156.921997070313	-319.3568725585938	1472.333129882813	-998.495056152344	-364.0657653808594	1331.244018554688	-1076.57470703125	-507.3613281250001	1075.12255859375	-1025.30029296875	-250.8081054687501	1241.794555664063	-1069.43310546875	-272.4389038085938	1309.829833984375	-1214.996948242188	-120.5449295043946	1252.612670898438	-1310.832763671875	-91.22222900390626	1260.244018554688	-1270.251831054688	-53.96618652343751	1235.599731445313	-1311.103881835938	5.14887285232544	1225.838500976563	-1300.839233398438	-17.90896606445313	1150.939331054688	-1281.1142578125	247.0451965332032	1207.877807617188	-1163.321899414063	259.0864868164063	1229.97021484375	-1063.06982421875	-276.1536865234376	1326.314819335938	-922.9282226562502	-139.5825958251953	1285.49365234375	-809.7210083007815	-105.7782897949219	1290.101806640625	-847.3475341796877	-71.33139801025392	1271.28125	-802.509460449219	-10.21298885345459	1262.639404296875	-809.0170898437502	-25.93493461608887	1182.527099609375	-815.7371826171877	244.1886901855469	1228.52978515625	-926.065124511719	251.8254699707032	1209.840209960938	-1039.975341796875	-407.6480102539064	842.4335937500002	-1108.672241210938	-400.8170471191407	842.4550781250002	-891.908874511719	-562.9609375000001	911.5645141601565	-993.2769165039065	-577.8527832031251	880.081481933594	-1017.561279296875	-377.1119689941407	649.0297241210939	-1185.830200195313	-294.7518920898438	625.7414550781251	-1191.717041015625	-265.4572753906251	661.7771606445314	-1185.378051757813	-271.3465576171876	570.5745849609376	-1179.311767578125	-156.2364501953125	476.4405517578126	-1156.952270507813	-149.0589904785157	487.5776672363282	-1039.449951171875	-179.3077239990235	322.0061645507813	-1052.017578125	-222.551254272461	276.5330200195313	-1113.726806640625	-193.0612182617188	269.1831359863282	-1075.375	-241.0408477783204	213.1173248291016	-1032.57470703125	-337.1916198730469	121.4849472045899	-1066.384643554688	-313.7862854003907	141.062255859375	-983.1707763671877	-407.3277282714845	110.6746520996094	-1010.649841308594	-202.2829132080079	63.75157165527345	-986.882751464844	-200.3860626220704	61.51353454589845	-1033.739868164063	-238.4148101806641	47.29368972778321	-1079.949584960938	-304.0774230957032	662.5781250000001	-802.3799438476565	-236.8695983886719	677.7473144531251	-803.5048828125002	-224.8258972167969	707.9805908203126	-815.2491455078127	-178.2703399658203	618.4692993164064	-820.2656860351565	-93.26534271240236	561.6859741210939	-822.9571533203127	-95.85342407226564	546.1336059570314	-940.8518676757815	7.190487861633303	471.6627502441407	-845.3314208984377	-24.34641075134278	380.4675903320313	-791.1242675781252	15.00779533386231	390.6825561523439	-811.7309570312502	45.12097167968751	347.6036987304688	-834.6389160156252	54.11306381225587	180.9242553710938	-805.1101074218752	29.7046012878418	109.1340255737305	-842.6627197265627	205.4427490234376	220.2314910888672	-881.4046630859377	211.6632690429688	228.5374755859376	-844.8388671875002	195.3597869873047	196.9854736328126	-788.6130371093752	66.1134490966797	190.8900451660157	-890.3382568359377	-573.2182006835939	883.9517211914065	-963.5637817382815	nan	nan	nan	
788	3.935	-135.3269195556641	1502.168823242188	-1074.960815429688	-267.9224853515626	1479.563720703125	-1157.060180664063	-319.1784973144532	1472.216918945313	-998.5694580078127	-363.8562011718751	1330.971801757813	-1076.67822265625	-507.406707763672	1075.011840820313	-1025.3408203125	-250.7765350341797	1241.562377929688	-1069.472534179688	-272.4008789062501	1309.548095703125	-1215.017700195313	-120.3621368408203	1252.290771484375	-1310.768188476563	-91.54546356201173	1260.180053710938	-1270.188232421875	-53.8324432373047	1235.150268554688	-1310.846923828125	5.272108554840089	1225.417114257813	-1300.62451171875	-17.91714668273926	1150.70458984375	-1280.974853515625	247.1341094970704	1207.433715820313	-1163.196533203125	259.2465515136719	1229.510375976563	-1063.0234375	-275.8088989257813	1325.971923828125	-923.0130615234377	-139.3098754882813	1285.054809570313	-809.9914550781252	-105.6101303100586	1289.812255859375	-847.429870605469	-71.16617584228517	1270.976196289063	-802.6387939453127	-9.999906539916994	1262.319091796875	-809.0984497070315	-25.6958236694336	1182.192993164063	-815.8398437500002	244.375473022461	1228.078369140625	-925.9834594726565	250.1995697021485	1208.87060546875	-1039.491943359375	-407.6921386718751	842.3028564453127	-1108.7607421875	-400.9603881835939	842.5739746093752	-892.4207153320315	-563.0156250000001	911.3919677734377	-993.2464599609377	-577.7484741210939	879.8745117187502	-1017.523071289063	-377.1805725097657	648.8904418945314	-1185.940185546875	-294.7384338378907	625.7323608398439	-1191.983032226563	-265.6412963867188	661.7571411132814	-1185.489379882813	-271.4024658203126	570.5391845703126	-1179.504272460938	-156.318359375	476.3374023437501	-1157.156860351563	-149.0396270751953	487.4574279785157	-1039.650634765625	-179.2928314208985	321.9332885742188	-1052.177001953125	-222.5702362060547	276.4792480468751	-1113.817749023438	-192.978500366211	268.9774780273438	-1075.394409179688	-240.9713287353516	213.1166687011719	-1032.695922851563	-337.1945190429688	121.476791381836	-1066.435791015625	-313.7695312500001	141.1432342529297	-983.1655883789065	-407.3486938476564	110.736068725586	-1010.640930175781	-202.3284301757813	63.76388931274415	-986.858825683594	-200.4767456054688	61.52476501464845	-1033.838500976563	-238.4737854003907	47.27744293212891	-1079.938232421875	-303.8291931152344	662.9530639648439	-802.8974609375002	-236.8089141845704	677.7586669921876	-803.4860839843752	-224.7574768066407	707.9827270507814	-815.3226318359377	-177.544921875	619.2743530273439	-818.4831542968752	-93.0801467895508	561.7826538085939	-822.959167480469	-95.54673004150392	546.2437133789064	-940.8745117187502	7.2204647064209	471.7261657714845	-845.2622680664065	-24.21448326110841	380.2377624511719	-790.7561035156252	15.12999153137207	390.714813232422	-811.6613769531252	45.20855712890626	347.6511535644532	-834.5884399414065	54.18128967285158	180.874267578125	-805.0272216796877	29.73359870910645	109.1294250488282	-842.7278442382815	205.5220642089844	220.1913452148438	-881.3648071289065	211.8083953857422	228.4678955078126	-844.8022460937502	195.3958282470704	197.1089477539063	-788.455505371094	66.22857666015626	190.9830780029297	-890.3128051757815	-573.3002929687501	883.6443481445315	-963.4949340820315	nan	nan	nan	
789	3.94	-135.1556091308594	1501.498901367188	-1075.157348632813	-268.8748779296876	1478.72265625	-1157.077270507813	-319.0146179199219	1472.107788085938	-998.6794433593752	-363.9852294921876	1331.333251953125	-1077.100219726563	-507.3985900878907	1074.822875976563	-1025.325805664063	-250.7579498291016	1241.287719726563	-1069.522827148438	-272.2701110839844	1309.30517578125	-1215.062377929688	-120.1676483154297	1252.1708984375	-1310.642944335938	-91.44783782958986	1259.7587890625	-1270.179931640625	-53.5478973388672	1234.854858398438	-1310.948120117188	5.448246479034425	1224.997802734375	-1300.484985351563	-18.10688972473145	1150.489501953125	-1280.493041992188	247.4181671142579	1206.8505859375	-1163.0888671875	259.3101501464844	1229.080078125	-1062.96533203125	-276.6099548339844	1325.375244140625	-923.9095458984377	-138.988037109375	1284.636474609375	-810.0139770507815	-105.4379348754883	1289.445678710938	-847.534118652344	-71.18473052978517	1270.915771484375	-802.7075195312502	-9.871971130371096	1262.061645507813	-809.0930786132815	-25.44468688964844	1182.080810546875	-816.056091308594	244.6533355712891	1227.474853515625	-925.9318847656252	252.9636230468751	1208.389404296875	-1039.803344726563	-407.8339233398439	842.1795043945315	-1108.776000976563	-401.001922607422	842.4182128906252	-892.434020996094	-563.0680541992189	911.296081542969	-993.1909790039065	-577.7572631835939	879.6914062500002	-1017.499694824219	-377.3114013671876	648.8238525390626	-1186.053466796875	-294.8799133300782	625.6180419921876	-1192.138549804688	-265.8018798828126	661.6654052734376	-1185.60546875	-271.4927978515626	570.4554443359376	-1179.697875976563	-156.343994140625	476.337371826172	-1157.4482421875	-149.0691986083985	487.4191894531251	-1039.74560546875	-179.3249816894532	321.8687133789063	-1052.237548828125	-222.6595153808594	276.4020690917969	-1113.891967773438	-192.9430084228516	268.8408508300782	-1075.34765625	-241.0324249267579	213.1033172607422	-1032.650756835938	-337.2171936035157	121.48046875	-1066.385864257813	-313.7655334472657	141.1558532714844	-983.214538574219	-407.2808837890626	110.6567840576172	-1010.722412109375	-202.2982025146485	63.75258636474611	-986.8142089843752	-200.4077301025391	61.42146301269533	-1033.77734375	-238.5413055419922	47.14950561523438	-1080.001708984375	-303.7785034179688	662.9013671875001	-802.8518676757815	-236.8177947998047	677.7682495117189	-803.4583129882815	-224.7612915039063	708.0347290039064	-815.2901611328127	-177.5245971679688	619.3188476562501	-818.354431152344	-93.05852508544923	561.9792480468751	-822.7637939453127	-95.41676330566408	546.2890014648439	-940.865417480469	7.314318656921388	471.7406311035157	-845.1783447265627	-24.25362968444825	380.5687255859376	-791.051940917969	15.23776149749756	390.6690368652345	-811.6231079101565	45.25037384033204	347.7038574218751	-834.5406494140627	54.19519042968751	180.9576873779297	-805.0765380859377	29.51395416259766	109.2607727050782	-842.5997314453127	205.549545288086	220.1151733398438	-881.335632324219	211.9622039794922	228.3902740478516	-844.6912841796877	195.4275207519532	196.9549255371094	-788.436218261719	66.2335891723633	191.0029296875	-890.3054809570315	-573.2919311523439	883.5552978515627	-963.4422607421877	nan	nan	nan	
